<svg width="201" height="64" viewBox="0 0 201 64" fill="none" xmlns="http://www.w3.org/2000/svg">
<g clip-path="url(#clip0_102_27)">
<rect width="201" height="64" fill="white"/>
<path d="M26.944 43.504C25.7493 44.4853 24.2987 45.2533 22.592 45.808C20.928 46.3627 19.2427 46.64 17.536 46.64C14.6347 46.64 12.0533 46.064 9.792 44.912C7.57333 43.76 5.84533 42.1387 4.608 40.048C3.37067 37.9573 2.752 35.4827 2.752 32.624C2.752 29.7227 3.41333 27.2267 4.736 25.136C6.05867 23.0453 7.78667 21.4453 9.92 20.336C12.096 19.184 14.4213 18.608 16.896 18.608C19.1147 18.608 21.056 18.9067 22.72 19.504C24.4267 20.1013 25.8987 20.9333 27.136 22L23.936 26.16C23.2107 25.5627 22.2933 25.0293 21.184 24.56C20.0747 24.0907 18.8373 23.856 17.472 23.856C15.936 23.856 14.528 24.24 13.248 25.008C12.0107 25.776 11.0293 26.8213 10.304 28.144C9.57867 29.4667 9.216 30.96 9.216 32.624C9.216 34.2453 9.57867 35.7173 10.304 37.04C11.072 38.3627 12.1173 39.408 13.44 40.176C14.8053 40.944 16.3413 41.328 18.048 41.328C19.1573 41.328 20.1813 41.1573 21.12 40.816C22.1013 40.4747 22.9547 40.0267 23.68 39.472L26.944 43.504ZM32.1895 32.368C32.1895 29.68 32.8295 27.2693 34.1095 25.136C35.3895 22.96 37.1602 21.2533 39.4215 20.016C41.6828 18.7787 44.2642 18.16 47.1655 18.16C50.1095 18.16 52.6695 18.7787 54.8455 20.016C57.0642 21.2533 58.7708 22.96 59.9655 25.136C61.2028 27.2693 61.8215 29.68 61.8215 32.368C61.8215 35.056 61.2028 37.488 59.9655 39.664C58.7282 41.7973 57.0002 43.504 54.7815 44.784C52.6055 46.0213 50.0242 46.64 47.0375 46.64C44.2215 46.64 41.6828 46.064 39.4215 44.912C37.2028 43.76 35.4322 42.1173 34.1095 39.984C32.8295 37.808 32.1895 35.2693 32.1895 32.368ZM38.7175 32.432C38.7175 34.096 39.0802 35.6107 39.8055 36.976C40.5308 38.2987 41.5122 39.3653 42.7495 40.176C44.0295 40.944 45.4375 41.328 46.9735 41.328C49.4055 41.328 51.3895 40.4747 52.9255 38.768C54.5042 37.0613 55.2935 34.9493 55.2935 32.432C55.2935 29.9147 54.5042 27.8027 52.9255 26.096C51.3895 24.3467 49.4055 23.472 46.9735 23.472C45.3948 23.472 43.9868 23.8773 42.7495 24.688C41.5122 25.4987 40.5308 26.5867 39.8055 27.952C39.0802 29.3173 38.7175 30.8107 38.7175 32.432ZM37.3735 11.248C37.3735 10.224 37.7362 9.37067 38.4615 8.688C39.2295 7.96267 40.0615 7.6 40.9575 7.6C41.8108 7.6 42.6002 7.96267 43.3255 8.688C44.0935 9.37067 44.4775 10.224 44.4775 11.248C44.4775 12.3147 44.0935 13.1893 43.3255 13.872C42.6002 14.512 41.8108 14.832 40.9575 14.832C40.0615 14.832 39.2295 14.512 38.4615 13.872C37.7362 13.1893 37.3735 12.3147 37.3735 11.248ZM49.4695 11.248C49.4695 10.224 49.8322 9.37067 50.5575 8.688C51.3255 7.96267 52.1575 7.6 53.0535 7.6C53.9068 7.6 54.6962 7.96267 55.4215 8.688C56.1895 9.37067 56.5735 10.224 56.5735 11.248C56.5735 12.3147 56.1895 13.1893 55.4215 13.872C54.6962 14.512 53.9068 14.832 53.0535 14.832C52.1575 14.832 51.3255 14.512 50.5575 13.872C49.8322 13.1893 49.4695 12.3147 49.4695 11.248ZM85.6185 46.64C83.6558 46.64 81.7572 46.2133 79.9225 45.36C78.1305 44.464 76.7225 43.248 75.6985 41.712L76.0825 39.728V58.864H69.6185V18.8H75.1865L76.0825 25.392L75.4425 23.536C76.7225 21.9573 78.3225 20.6773 80.2425 19.696C82.2052 18.672 84.4025 18.16 86.8345 18.16C89.3518 18.16 91.6132 18.7573 93.6185 19.952C95.6238 21.1467 97.2025 22.832 98.3545 25.008C99.5065 27.1413 100.083 29.6587 100.083 32.56C100.083 35.4613 99.4425 37.9787 98.1625 40.112C96.9252 42.2027 95.2185 43.824 93.0425 44.976C90.8665 46.0853 88.3918 46.64 85.6185 46.64ZM84.3385 41.52C86.0025 41.52 87.5172 41.136 88.8825 40.368C90.2905 39.6 91.3998 38.5547 92.2105 37.232C93.0638 35.8667 93.4905 34.3307 93.4905 32.624C93.4905 30.8747 93.1065 29.3173 92.3385 27.952C91.5705 26.5867 90.5252 25.52 89.2025 24.752C87.8798 23.984 86.4078 23.6 84.7865 23.6C82.5678 23.6 80.6905 24.1973 79.1545 25.392C77.6612 26.5867 76.6372 28.1653 76.0825 30.128V34.928C76.4238 36.848 77.3625 38.4267 78.8985 39.664C80.4345 40.9013 82.2478 41.52 84.3385 41.52ZM109.36 58.864L126.96 19.248H132.912L115.632 58.864H109.36ZM116.016 46.192L103.152 19.248H110.384L121.072 42.928L116.016 46.192Z" fill="black"/>
<g clip-path="url(#clip1_102_27)">
<path d="M142 26.6108C142 24.7403 143.487 23.2279 145.317 23.2279C145.367 23.2279 145.416 23.2318 145.464 23.2346L145.49 23.1411L162.815 23.1411L167.758 7.93049L167.803 7.92786C167.851 5.88913 169.485 4.24305 171.501 4.24305C173.478 4.24305 175.087 5.82355 175.192 7.81561L175.205 7.81561L180.187 23.1411L196.85 23.1411C197.036 23.1117 197.224 23.0916 197.421 23.0916C199.397 23.0918 201 24.7244 201 26.7418C201 28.3316 199.999 29.6797 198.609 30.1807L185.554 39.6638L190.812 55.8485L190.713 55.9219C190.845 56.2934 190.92 56.6941 190.92 57.115C190.92 59.0563 189.375 60.6301 187.469 60.6301C186.636 60.6301 185.872 60.3268 185.275 59.823L185.236 59.8551L171.502 49.8751L157.555 60.0088L157.489 59.9634C156.903 60.4578 156.151 60.7569 155.334 60.7569C153.464 60.7569 151.951 59.2124 151.951 57.31C151.951 56.9612 152.002 56.6272 152.096 56.3106L152.048 56.2812L157.446 39.6638L143.653 29.6409L143.681 29.55C142.677 28.9649 142 27.8667 142 26.6108Z" fill="#0D6EFD"/>
</g>
</g>
<defs>
<clipPath id="clip0_102_27">
<rect width="201" height="64" fill="white"/>
</clipPath>
<clipPath id="clip1_102_27">
<rect width="59" height="59" fill="white" transform="matrix(-1 -8.74228e-08 -8.74228e-08 1 201 3)"/>
</clipPath>
</defs>
</svg>
