<svg width="115" height="33" viewBox="0 0 115 33" fill="none" xmlns="http://www.w3.org/2000/svg">
<path d="M8.04 3C11.24 3 13.7467 3.8 15.56 5.4C17.3733 7 18.28 9.24 18.28 12.12C18.28 13.2667 18.1067 14.4 17.76 15.52C17.4133 16.64 16.8533 17.6667 16.08 18.6C15.3333 19.5067 14.3333 20.24 13.08 20.8C11.8533 21.3333 10.3467 21.6 8.56 21.6H4.28V32H0.12V3H8.04ZM8.52 17.52C9.61333 17.52 10.52 17.3467 11.24 17C11.9867 16.6267 12.56 16.16 12.96 15.6C13.3867 15.04 13.68 14.4533 13.84 13.84C14.0267 13.2267 14.12 12.68 14.12 12.2C14.12 11.6667 14.0267 11.1067 13.84 10.52C13.68 9.90667 13.3867 9.34667 12.96 8.84C12.56 8.30666 12.0133 7.88 11.32 7.56C10.6267 7.21333 9.76 7.04 8.72 7.04H4.28V17.52H8.52ZM26.8225 15.28L27.2225 20.08L27.0625 19.44C27.5158 18.4267 28.1425 17.56 28.9425 16.84C29.7692 16.12 30.6225 15.5733 31.5025 15.2C32.4092 14.8 33.1692 14.6 33.7825 14.6L33.5825 18.6C32.3292 18.52 31.2225 18.76 30.2625 19.32C29.3292 19.88 28.5958 20.6267 28.0625 21.56C27.5292 22.4933 27.2625 23.4933 27.2625 24.56V32H23.2225V15.28H26.8225ZM38.4569 15.28H42.4969V32H38.4569V15.28ZM38.2569 9.28C38.2569 8.66667 38.4969 8.14667 38.9769 7.72C39.4835 7.29333 40.0302 7.08 40.6169 7.08C41.2035 7.08 41.7369 7.29333 42.2169 7.72C42.6969 8.14667 42.9369 8.66667 42.9369 9.28C42.9369 9.94667 42.6969 10.48 42.2169 10.88C41.7369 11.28 41.2035 11.48 40.6169 11.48C40.0302 11.48 39.4835 11.28 38.9769 10.88C38.4969 10.48 38.2569 9.94667 38.2569 9.28ZM52.4484 15.28L52.8084 19.16L52.6484 18.6C53.1818 17.4 54.0351 16.44 55.2084 15.72C56.4084 15 57.8084 14.64 59.4084 14.64C60.9818 14.64 62.2751 15.1067 63.2884 16.04C64.3018 16.9467 64.8218 18.1467 64.8484 19.64V32H60.8084V21.04C60.7818 20.1867 60.5284 19.4933 60.0484 18.96C59.5684 18.4 58.8218 18.1067 57.8084 18.08C56.3951 18.08 55.2084 18.6667 54.2484 19.84C53.3151 21.0133 52.8484 22.52 52.8484 24.36V32H48.8084V15.28H52.4484ZM72.7913 7.96H76.8713V15.32H81.3513V18.48H76.8713V32H72.7913V18.48H69.8313V15.32H72.7913V7.96ZM83.3206 7.2H87.7606L90.6006 12.56H88.0806L83.3206 7.2ZM103.891 32.4C102.317 32.4 100.904 32.04 99.6506 31.32C98.3973 30.5733 97.4106 29.52 96.6906 28.16C95.9706 26.8 95.6106 25.2133 95.6106 23.4C95.6106 21.5333 95.9973 19.9467 96.7706 18.64C97.544 17.3333 98.584 16.3333 99.8906 15.64C101.224 14.9467 102.717 14.6 104.371 14.6C105.651 14.6 106.864 14.8667 108.011 15.4C109.184 15.9067 110.104 16.6267 110.771 17.56L110.611 18.96V0.92H114.651V32H110.571V28L111.011 29.08C110.211 30.04 109.197 30.84 107.971 31.48C106.771 32.0933 105.411 32.4 103.891 32.4ZM105.131 29C106.544 29 107.717 28.64 108.651 27.92C109.611 27.1733 110.251 26.1867 110.571 24.96V21.64C110.277 20.52 109.624 19.6 108.611 18.88C107.624 18.16 106.464 17.8 105.131 17.8C104.171 17.8 103.277 18.04 102.451 18.52C101.624 18.9733 100.957 19.6267 100.451 20.48C99.9706 21.3067 99.7306 22.2667 99.7306 23.36C99.7306 24.4 99.9706 25.3467 100.451 26.2C100.957 27.0533 101.624 27.7333 102.451 28.24C103.277 28.7467 104.171 29 105.131 29Z" fill="black"/>
</svg>
